# xmcd
#
# Track frame offsets: 
#        150
#        17287
#        34637
#        45212
#        62362
#        79025
#        95525
#        111037
#        138125
#        158812
#        174887
#        192750
#        216487
#        232737
#        246362
#        267425
#        284325
#        298012
#        312712
#        324112
#
# Disc length: 4569 seconds
#
# Revision: 6
# Processed by: cddbd v1.5.2PL0 Copyright (c) Steve Scherf et al.
# Submitted via: ExactAudioCopy v0.95a3
#
DISCID=0511d714
DTITLE=Jazz - What Are You Doing the Rest of Your Life
DYEAR=2003
DGENRE=Jazz
TTITLE0=What Are You Doing the Rest of Your Life
TTITLE1=When I Fall in Love
TTITLE2=What a Wonderful World
TTITLE3=Cheek to Cheek
TTITLE4=Everything Happens to Me
TTITLE5=Dream a Little Dream
TTITLE6=La Vie en Rose
TTITLE7=Someone to Watch Over Me
TTITLE8=Don't Explain
TTITLE9=Let's do it (Let's Fall in Love)
TTITLE10=My Funny Valentine
TTITLE11=Over the Rainbow
TTITLE12=The Look of Love
TTITLE13=The Way You Look Tonight
TTITLE14=I Will Wait for You
TTITLE15=Blue Moon
TTITLE16=Misty
TTITLE17=Solitude
TTITLE18=What a Diff'rence a Day Made
TTITLE19=All That Jazz
EXTD=YEAR: 2003
EXTT0=
EXTT1=
EXTT2=
EXTT3=
EXTT4=
EXTT5=
EXTT6=
EXTT7=
EXTT8=
EXTT9=
EXTT10=
EXTT11=
EXTT12=
EXTT13=
EXTT14=
EXTT15=
EXTT16=
EXTT17=
EXTT18=
EXTT19=
PLAYORDER=
